<svg xmlns="http://www.w3.org/2000/svg" xmlns:xlink="http://www.w3.org/1999/xlink" width="500" zoomAndPan="magnify" viewBox="0 0 375 149.999998" height="200" preserveAspectRatio="xMidYMid meet" version="1.0"><defs><g/></defs><g fill="#ee537f" fill-opacity="1"><g transform="translate(149.379555, 49.343738)"><g><path d="M 57.984375 -14.921875 C 58.546875 -14.972656 59.109375 -15 59.671875 -15 C 60.234375 -15 60.800781 -14.691406 61.375 -14.078125 C 56.28125 -13.679688 51.851562 -12.914062 48.09375 -11.78125 C 44.34375 -10.65625 40.925781 -9.171875 37.84375 -7.328125 C 34.769531 -5.492188 31.734375 -3.316406 28.734375 -0.796875 C 25.742188 1.710938 22.492188 4.578125 18.984375 7.796875 C 17.578125 9.035156 16.179688 10.234375 14.796875 11.390625 C 13.410156 12.554688 11.894531 13.617188 10.25 14.578125 C 9.175781 15.140625 8.0625 15.578125 6.90625 15.890625 C 5.75 16.203125 4.550781 16.273438 3.3125 16.109375 C 0.757812 15.765625 -1.25 14.492188 -2.71875 12.296875 C -4.40625 9.753906 -5.316406 6.742188 -5.453125 3.265625 C -5.597656 -0.210938 -5.078125 -3.785156 -3.890625 -7.453125 C -2.710938 -11.128906 -0.96875 -14.578125 1.34375 -17.796875 C 3.664062 -21.015625 6.46875 -23.644531 9.75 -25.6875 C 11.550781 -26.757812 13.390625 -27.039062 15.265625 -26.53125 C 16.898438 -25.96875 17.832031 -24.953125 18.0625 -23.484375 C 18.34375 -21.617188 18.171875 -19.878906 17.546875 -18.265625 C 16.921875 -16.648438 16.015625 -15.140625 14.828125 -13.734375 C 14.378906 -13.222656 13.785156 -13.109375 13.046875 -13.390625 C 11.972656 -13.734375 11.773438 -14.359375 12.453125 -15.265625 C 13.535156 -16.785156 14.328125 -18.5625 14.828125 -20.59375 C 15.171875 -21.664062 15.203125 -22.769531 14.921875 -23.90625 C 14.859375 -24.582031 14.429688 -24.835938 13.640625 -24.671875 C 12.066406 -24.160156 10.375 -22.984375 8.5625 -21.140625 C 6.75 -19.304688 5.035156 -17.046875 3.421875 -14.359375 C 1.816406 -11.679688 0.492188 -8.800781 -0.546875 -5.71875 C -1.597656 -2.644531 -2.207031 0.429688 -2.375 3.515625 C -2.539062 6.597656 -2.03125 9.410156 -0.84375 11.953125 C -0.113281 13.535156 0.769531 14.535156 1.8125 14.953125 C 2.863281 15.378906 4.207031 15.367188 5.84375 14.921875 C 7.3125 14.578125 8.640625 13.992188 9.828125 13.171875 C 11.015625 12.359375 12.144531 11.472656 13.21875 10.515625 C 17.007812 7.234375 20.285156 4.375 23.046875 1.9375 C 25.816406 -0.488281 28.375 -2.585938 30.71875 -4.359375 C 33.070312 -6.140625 35.476562 -7.664062 37.9375 -8.9375 C 40.394531 -10.207031 43.21875 -11.320312 46.40625 -12.28125 C 49.601562 -13.25 53.460938 -14.128906 57.984375 -14.921875 Z M 57.984375 -14.921875 "/></g></g></g><g fill="#ee537f" fill-opacity="1"><g transform="translate(208.538638, 49.343738)"><g><path d="M -2.453125 37.71875 C -3.867188 41 -5.296875 44.332031 -6.734375 47.71875 C -8.179688 51.113281 -9.78125 54.394531 -11.53125 57.5625 C -13.84375 61.851562 -16.328125 66.046875 -18.984375 70.140625 C -21.640625 74.242188 -24.722656 78.046875 -28.234375 81.546875 C -30.203125 83.578125 -32.316406 85.425781 -34.578125 87.09375 C -36.835938 88.757812 -39.296875 90.101562 -41.953125 91.125 C -49.984375 94.289062 -57.554688 93.5 -64.671875 88.75 C -66.421875 87.5625 -67.773438 86.117188 -68.734375 84.421875 C -69.703125 82.734375 -70.523438 80.957031 -71.203125 79.09375 C -72.273438 76.039062 -72.828125 72.957031 -72.859375 69.84375 C -72.890625 66.738281 -72.5625 63.601562 -71.875 60.4375 C -71.082031 56.757812 -69.8125 53.351562 -68.0625 50.21875 C -66.3125 47.082031 -64.28125 44.101562 -61.96875 41.28125 C -57.957031 36.476562 -53.503906 32.296875 -48.609375 28.734375 C -43.722656 25.171875 -38.484375 22.09375 -32.890625 19.5 C -28.992188 17.6875 -24.992188 16.210938 -20.890625 15.078125 C -16.796875 13.953125 -12.601562 13.191406 -8.3125 12.796875 C -6.726562 12.679688 -5.15625 12.640625 -3.59375 12.671875 C -2.039062 12.703125 -0.472656 12.773438 1.109375 12.890625 C 1.953125 12.941406 2.472656 12.910156 2.671875 12.796875 C 2.867188 12.679688 3.109375 12.257812 3.390625 11.53125 C 5.253906 7.175781 7.226562 2.878906 9.3125 -1.359375 C 11.40625 -5.597656 13.671875 -9.722656 16.109375 -13.734375 C 16.390625 -14.179688 16.671875 -14.617188 16.953125 -15.046875 C 17.234375 -15.472656 17.40625 -15.96875 17.46875 -16.53125 C 16.445312 -15.96875 15.523438 -15.289062 14.703125 -14.5 C 13.890625 -13.707031 13.054688 -12.914062 12.203125 -12.125 C 10.453125 -10.375 8.703125 -8.59375 6.953125 -6.78125 C 5.203125 -4.96875 3.421875 -3.21875 1.609375 -1.53125 C 0.984375 -0.957031 0.25 -0.445312 -0.59375 0 C -1.945312 0.738281 -3.226562 0.726562 -4.4375 -0.03125 C -5.65625 -0.800781 -6.238281 -1.945312 -6.1875 -3.46875 C -6.1875 -4.769531 -5.957031 -6 -5.5 -7.15625 C -5.050781 -8.320312 -4.546875 -9.441406 -3.984375 -10.515625 C -1.328125 -15.597656 2.257812 -19.722656 6.78125 -22.890625 C 7.40625 -23.335938 8.054688 -23.71875 8.734375 -24.03125 C 9.410156 -24.34375 10.113281 -24.613281 10.84375 -24.84375 C 13.394531 -25.6875 15.828125 -25.257812 18.140625 -23.5625 C 18.585938 -23.164062 18.953125 -22.992188 19.234375 -23.046875 C 19.523438 -23.109375 19.867188 -23.28125 20.265625 -23.5625 C 20.878906 -24.125 21.507812 -24.644531 22.15625 -25.125 C 22.8125 -25.613281 23.476562 -26.082031 24.15625 -26.53125 C 24.664062 -26.875 25.484375 -26.988281 26.609375 -26.875 C 27.742188 -26.757812 28.507812 -26.503906 28.90625 -26.109375 C 29.132812 -25.878906 29.21875 -25.679688 29.15625 -25.515625 C 29.101562 -25.347656 29.019531 -25.207031 28.90625 -25.09375 C 28.5625 -24.632812 28.207031 -24.179688 27.84375 -23.734375 C 27.476562 -23.285156 27.15625 -22.832031 26.875 -22.375 C 25.226562 -19.945312 23.65625 -17.488281 22.15625 -15 C 20.664062 -12.519531 19.242188 -9.976562 17.890625 -7.375 C 16.304688 -4.375 14.78125 -1.351562 13.3125 1.6875 C 11.84375 4.738281 10.398438 7.789062 8.984375 10.84375 C 8.472656 11.914062 8.175781 12.664062 8.09375 13.09375 C 8.007812 13.519531 8.175781 13.773438 8.59375 13.859375 C 9.019531 13.941406 9.742188 14.066406 10.765625 14.234375 C 12.460938 14.410156 14.128906 14.765625 15.765625 15.296875 C 17.398438 15.835938 19.007812 16.414062 20.59375 17.03125 C 20.59375 17.03125 20.707031 17.085938 20.9375 17.203125 C 21.050781 17.316406 21.207031 17.429688 21.40625 17.546875 C 21.601562 17.660156 21.644531 17.832031 21.53125 18.0625 C 21.476562 18.28125 21.351562 18.40625 21.15625 18.4375 C 20.957031 18.46875 20.769531 18.484375 20.59375 18.484375 C 19.800781 18.367188 19.023438 18.269531 18.265625 18.1875 C 17.503906 18.101562 16.726562 18.003906 15.9375 17.890625 C 14.632812 17.660156 13.332031 17.429688 12.03125 17.203125 C 10.738281 16.984375 9.441406 16.726562 8.140625 16.4375 C 7.179688 16.21875 6.503906 16.613281 6.109375 17.625 C 4.691406 20.957031 3.273438 24.304688 1.859375 27.671875 C 0.453125 31.035156 -0.984375 34.382812 -2.453125 37.71875 Z M 16.28125 -20.34375 C 16.445312 -20.457031 16.597656 -20.582031 16.734375 -20.71875 C 16.878906 -20.863281 16.894531 -21.050781 16.78125 -21.28125 C 16.613281 -21.675781 16.25 -21.929688 15.6875 -22.046875 C 15.34375 -22.046875 15.015625 -21.988281 14.703125 -21.875 C 14.390625 -21.757812 14.09375 -21.644531 13.8125 -21.53125 C 12.570312 -20.96875 11.382812 -20.289062 10.25 -19.5 C 9.125 -18.707031 8.082031 -17.832031 7.125 -16.875 C 5.3125 -15.226562 3.65625 -13.457031 2.15625 -11.5625 C 0.664062 -9.675781 -0.5625 -7.601562 -1.53125 -5.34375 C -1.75 -4.882812 -1.941406 -4.414062 -2.109375 -3.9375 C -2.285156 -3.457031 -2.316406 -2.878906 -2.203125 -2.203125 C -1.472656 -2.648438 -0.851562 -3.097656 -0.34375 -3.546875 C 0.164062 -4.003906 0.675781 -4.460938 1.1875 -4.921875 C 3.789062 -7.398438 6.273438 -9.992188 8.640625 -12.703125 C 11.015625 -15.421875 13.5625 -17.96875 16.28125 -20.34375 Z M -26.359375 73.234375 C -23.421875 69.054688 -20.738281 64.691406 -18.3125 60.140625 C -15.882812 55.585938 -13.625 50.992188 -11.53125 46.359375 C -9.71875 42.296875 -7.921875 38.203125 -6.140625 34.078125 C -4.359375 29.953125 -2.59375 25.828125 -0.84375 21.703125 C -0.507812 20.910156 -0.175781 20.117188 0.15625 19.328125 C 0.5 18.535156 0.84375 17.742188 1.1875 16.953125 C 1.414062 16.441406 1.472656 16.101562 1.359375 15.9375 C 1.242188 15.769531 0.90625 15.65625 0.34375 15.59375 C -0.507812 15.476562 -1.359375 15.421875 -2.203125 15.421875 C -3.046875 15.421875 -3.921875 15.453125 -4.828125 15.515625 C -9.179688 15.566406 -13.421875 16.15625 -17.546875 17.28125 C -21.671875 18.414062 -25.710938 19.890625 -29.671875 21.703125 C -35.429688 24.242188 -40.828125 27.289062 -45.859375 30.84375 C -50.890625 34.40625 -55.4375 38.644531 -59.5 43.5625 C -62.613281 47.351562 -65.070312 51.410156 -66.875 55.734375 C -68.6875 60.054688 -69.617188 64.734375 -69.671875 69.765625 C -69.847656 73.773438 -69.03125 77.671875 -67.21875 81.453125 C -66.59375 82.867188 -65.859375 84.210938 -65.015625 85.484375 C -64.171875 86.753906 -63.039062 87.816406 -61.625 88.671875 C -58.800781 90.359375 -55.664062 91.144531 -52.21875 91.03125 C -49.613281 90.925781 -47.164062 90.421875 -44.875 89.515625 C -42.59375 88.609375 -40.4375 87.394531 -38.40625 85.875 C -36.03125 84.113281 -33.851562 82.171875 -31.875 80.046875 C -29.894531 77.929688 -28.054688 75.660156 -26.359375 73.234375 Z M -26.359375 73.234375 "/></g></g></g><g fill="#ee537f" fill-opacity="1"><g transform="translate(49.456767, 122.800477)"><g><path d="M 13.703125 -4.078125 C 13.203125 -2.796875 12.390625 -1.769531 11.265625 -1 C 10.128906 -0.195312 8.882812 0.203125 7.53125 0.203125 C 5.6875 0.203125 4.109375 -0.476562 2.796875 -1.84375 C 1.515625 -3.175781 0.875 -4.773438 0.875 -6.640625 C 0.875 -7.566406 1.046875 -8.445312 1.390625 -9.28125 C 1.734375 -10.101562 2.203125 -10.832031 2.796875 -11.46875 C 4.109375 -12.820312 5.6875 -13.5 7.53125 -13.5 C 8.882812 -13.5 10.125 -13.113281 11.25 -12.34375 C 12.375 -11.5625 13.179688 -10.535156 13.671875 -9.265625 L 12.171875 -9.265625 C 11.453125 -10.585938 10.378906 -11.460938 8.953125 -11.890625 C 8.484375 -12.023438 7.941406 -12.09375 7.328125 -12.09375 C 6.710938 -12.09375 6.085938 -11.945312 5.453125 -11.65625 C 4.804688 -11.351562 4.25 -10.957031 3.78125 -10.46875 C 2.757812 -9.40625 2.25 -8.128906 2.25 -6.640625 C 2.25 -5.160156 2.757812 -3.894531 3.78125 -2.84375 C 4.8125 -1.757812 6.0625 -1.21875 7.53125 -1.21875 C 8.519531 -1.21875 9.429688 -1.476562 10.265625 -2 C 11.085938 -2.519531 11.726562 -3.210938 12.1875 -4.078125 Z M 13.703125 -4.078125 "/></g></g></g><g fill="#ee537f" fill-opacity="1"><g transform="translate(69.947683, 122.800477)"><g><path d="M 2.84375 0 L 1.46875 0 L 1.46875 -13.328125 L 2.84375 -13.328125 L 2.84375 -7.328125 L 8.890625 -7.328125 L 8.890625 -13.328125 L 10.265625 -13.328125 L 10.265625 0 L 8.890625 0 L 8.890625 -5.953125 L 2.84375 -5.953125 Z M 2.84375 0 "/></g></g></g><g fill="#ee537f" fill-opacity="1"><g transform="translate(87.891951, 122.800477)"><g><path d="M 3.625 -4.890625 L 8.46875 -4.890625 L 6.046875 -11.03125 Z M 11.890625 0 L 10.40625 0 L 8.96875 -3.625 L 3.109375 -3.625 L 1.6875 0 L 0.203125 0 L 6.046875 -14.25 Z M 11.890625 0 "/></g></g></g><g fill="#ee537f" fill-opacity="1"><g transform="translate(106.188833, 122.800477)"><g><path d="M 2.84375 -6.578125 L 5.9375 -6.578125 C 6.707031 -6.578125 7.34375 -6.84375 7.84375 -7.375 C 8.351562 -7.90625 8.609375 -8.5625 8.609375 -9.34375 C 8.609375 -10.113281 8.363281 -10.753906 7.875 -11.265625 C 7.394531 -11.765625 6.75 -12.015625 5.9375 -12.015625 L 2.84375 -12.015625 Z M 9.96875 -9.3125 C 9.96875 -8.144531 9.554688 -7.175781 8.734375 -6.40625 C 8.003906 -5.726562 7.125 -5.359375 6.09375 -5.296875 L 10.1875 0 L 8.34375 0 L 4.453125 -5.265625 L 2.84375 -5.265625 L 2.84375 0 L 1.46875 0 L 1.46875 -13.328125 L 5.734375 -13.328125 C 6.929688 -13.328125 7.929688 -12.953125 8.734375 -12.203125 C 9.554688 -11.421875 9.96875 -10.457031 9.96875 -9.3125 Z M 9.96875 -9.3125 "/></g></g></g><g fill="#ee537f" fill-opacity="1"><g transform="translate(123.055679, 122.800477)"><g><path d="M 2.84375 -1.375 L 7.609375 -1.375 L 7.609375 0 L 1.46875 0 L 1.46875 -13.328125 L 2.84375 -13.328125 Z M 2.84375 -1.375 "/></g></g></g><g fill="#ee537f" fill-opacity="1"><g transform="translate(137.258327, 122.800477)"><g><path d="M 13.203125 -6.703125 C 13.203125 -8.203125 12.664062 -9.488281 11.59375 -10.5625 C 10.53125 -11.632812 9.238281 -12.171875 7.71875 -12.171875 C 6.21875 -12.171875 4.929688 -11.632812 3.859375 -10.5625 C 2.785156 -9.488281 2.25 -8.203125 2.25 -6.703125 C 2.25 -5.179688 2.785156 -3.890625 3.859375 -2.828125 C 4.929688 -1.753906 6.21875 -1.21875 7.71875 -1.21875 C 9.238281 -1.21875 10.53125 -1.753906 11.59375 -2.828125 C 12.664062 -3.890625 13.203125 -5.179688 13.203125 -6.703125 Z M 14.578125 -6.703125 C 14.578125 -5.765625 14.398438 -4.875 14.046875 -4.03125 C 13.679688 -3.195312 13.191406 -2.472656 12.578125 -1.859375 C 11.953125 -1.234375 11.222656 -0.742188 10.390625 -0.390625 C 9.546875 -0.0234375 8.65625 0.15625 7.71875 0.15625 C 6.78125 0.15625 5.898438 -0.0234375 5.078125 -0.390625 C 4.242188 -0.742188 3.519531 -1.234375 2.90625 -1.859375 C 2.269531 -2.472656 1.78125 -3.195312 1.4375 -4.03125 C 1.0625 -4.875 0.875 -5.765625 0.875 -6.703125 C 0.875 -7.640625 1.0625 -8.523438 1.4375 -9.359375 C 1.78125 -10.203125 2.269531 -10.929688 2.90625 -11.546875 C 3.519531 -12.160156 4.242188 -12.648438 5.078125 -13.015625 C 5.898438 -13.367188 6.78125 -13.546875 7.71875 -13.546875 C 8.65625 -13.546875 9.546875 -13.367188 10.390625 -13.015625 C 11.222656 -12.648438 11.953125 -12.160156 12.578125 -11.546875 C 13.191406 -10.929688 13.679688 -10.203125 14.046875 -9.359375 C 14.398438 -8.523438 14.578125 -7.640625 14.578125 -6.703125 Z M 14.578125 -6.703125 "/></g></g></g><g fill="#ee537f" fill-opacity="1"><g transform="translate(158.924623, 122.800477)"><g><path d="M 0.390625 -12.09375 L 0.390625 -13.359375 L 8.234375 -13.359375 L 8.234375 -12.09375 L 5 -12.09375 L 5 -0.046875 L 3.625 -0.046875 L 3.625 -12.09375 Z M 0.390625 -12.09375 "/></g></g></g><g fill="#ee537f" fill-opacity="1"><g transform="translate(173.754147, 122.800477)"><g><path d="M 0.390625 -12.09375 L 0.390625 -13.359375 L 8.234375 -13.359375 L 8.234375 -12.09375 L 5 -12.09375 L 5 -0.046875 L 3.625 -0.046875 L 3.625 -12.09375 Z M 0.390625 -12.09375 "/></g></g></g><g fill="#ee537f" fill-opacity="1"><g transform="translate(188.58367, 122.800477)"><g><path d="M 9.390625 0 L 1.46875 0 L 1.46875 -13.328125 L 9.390625 -13.328125 L 9.390625 -12.046875 L 2.84375 -12.046875 L 2.84375 -7.3125 L 9.1875 -7.3125 L 9.1875 -6.015625 L 2.84375 -6.015625 L 2.84375 -1.28125 L 9.390625 -1.28125 Z M 9.390625 0 "/></g></g></g><g fill="#ee537f" fill-opacity="1"><g transform="translate(205.646406, 122.800477)"><g/></g></g><g fill="#ee537f" fill-opacity="1"><g transform="translate(217.145693, 122.800477)"><g><path d="M 14.609375 -6.234375 L 14.484375 -5.40625 C 14.191406 -3.789062 13.398438 -2.457031 12.109375 -1.40625 C 10.816406 -0.363281 9.359375 0.15625 7.734375 0.15625 C 6.796875 0.15625 5.910156 -0.0234375 5.078125 -0.390625 C 4.242188 -0.742188 3.519531 -1.234375 2.90625 -1.859375 C 2.269531 -2.472656 1.78125 -3.195312 1.4375 -4.03125 C 1.0625 -4.875 0.875 -5.769531 0.875 -6.71875 C 0.875 -7.65625 1.0625 -8.546875 1.4375 -9.390625 C 1.78125 -10.222656 2.269531 -10.953125 2.90625 -11.578125 C 3.519531 -12.191406 4.242188 -12.679688 5.078125 -13.046875 C 5.910156 -13.398438 6.753906 -13.578125 7.609375 -13.578125 C 9.203125 -13.578125 10.601562 -13.125 11.8125 -12.21875 C 13.039062 -11.320312 13.878906 -10.132812 14.328125 -8.65625 L 12.875 -8.65625 C 12.457031 -9.738281 11.785156 -10.601562 10.859375 -11.25 C 9.910156 -11.882812 8.867188 -12.203125 7.734375 -12.203125 C 6.222656 -12.203125 4.929688 -11.664062 3.859375 -10.59375 C 2.785156 -9.53125 2.25 -8.238281 2.25 -6.71875 C 2.25 -5.21875 2.785156 -3.925781 3.859375 -2.84375 C 4.921875 -1.757812 6.210938 -1.21875 7.734375 -1.21875 C 8.941406 -1.21875 10.039062 -1.5625 11.03125 -2.25 C 12.007812 -2.957031 12.695312 -3.882812 13.09375 -5.03125 L 7.6875 -5.03125 L 7.6875 -6.234375 Z M 14.609375 -6.234375 "/></g></g></g><g fill="#ee537f" fill-opacity="1"><g transform="translate(238.851167, 122.800477)"><g><path d="M 2.84375 -1.375 L 7.609375 -1.375 L 7.609375 0 L 1.46875 0 L 1.46875 -13.328125 L 2.84375 -13.328125 Z M 2.84375 -1.375 "/></g></g></g><g fill="#ee537f" fill-opacity="1"><g transform="translate(253.053816, 122.800477)"><g><path d="M 2.84375 0 L 1.46875 0 L 1.46875 -13.328125 L 2.84375 -13.328125 Z M 2.84375 0 "/></g></g></g><g fill="#ee537f" fill-opacity="1"><g transform="translate(263.573612, 122.800477)"><g><path d="M 11.8125 -6.65625 C 11.8125 -5.695312 11.632812 -4.8125 11.28125 -4 C 10.914062 -3.175781 10.425781 -2.46875 9.8125 -1.875 C 9.195312 -1.289062 8.472656 -0.835938 7.640625 -0.515625 C 6.804688 -0.171875 5.910156 0 4.953125 0 L 1.46875 0 L 1.46875 -13.328125 L 4.953125 -13.328125 C 5.910156 -13.328125 6.804688 -13.160156 7.640625 -12.828125 C 8.472656 -12.492188 9.195312 -12.03125 9.8125 -11.4375 C 10.425781 -10.851562 10.914062 -10.15625 11.28125 -9.34375 C 11.632812 -8.519531 11.8125 -7.625 11.8125 -6.65625 Z M 10.484375 -6.65625 C 10.484375 -8.175781 9.945312 -9.445312 8.875 -10.46875 C 7.832031 -11.457031 6.539062 -11.953125 5 -11.953125 L 2.84375 -11.953125 L 2.84375 -1.375 L 5 -1.375 C 6.539062 -1.375 7.832031 -1.867188 8.875 -2.859375 C 9.945312 -3.878906 10.484375 -5.144531 10.484375 -6.65625 Z M 10.484375 -6.65625 "/></g></g></g><g fill="#ee537f" fill-opacity="1"><g transform="translate(282.477767, 122.800477)"><g><path d="M 11.8125 -6.65625 C 11.8125 -5.695312 11.632812 -4.8125 11.28125 -4 C 10.914062 -3.175781 10.425781 -2.46875 9.8125 -1.875 C 9.195312 -1.289062 8.472656 -0.835938 7.640625 -0.515625 C 6.804688 -0.171875 5.910156 0 4.953125 0 L 1.46875 0 L 1.46875 -13.328125 L 4.953125 -13.328125 C 5.910156 -13.328125 6.804688 -13.160156 7.640625 -12.828125 C 8.472656 -12.492188 9.195312 -12.03125 9.8125 -11.4375 C 10.425781 -10.851562 10.914062 -10.15625 11.28125 -9.34375 C 11.632812 -8.519531 11.8125 -7.625 11.8125 -6.65625 Z M 10.484375 -6.65625 C 10.484375 -8.175781 9.945312 -9.445312 8.875 -10.46875 C 7.832031 -11.457031 6.539062 -11.953125 5 -11.953125 L 2.84375 -11.953125 L 2.84375 -1.375 L 5 -1.375 C 6.539062 -1.375 7.832031 -1.867188 8.875 -2.859375 C 9.945312 -3.878906 10.484375 -5.144531 10.484375 -6.65625 Z M 10.484375 -6.65625 "/></g></g></g><g fill="#ee537f" fill-opacity="1"><g transform="translate(301.381906, 122.800477)"><g><path d="M 9.390625 0 L 1.46875 0 L 1.46875 -13.328125 L 9.390625 -13.328125 L 9.390625 -12.046875 L 2.84375 -12.046875 L 2.84375 -7.3125 L 9.1875 -7.3125 L 9.1875 -6.015625 L 2.84375 -6.015625 L 2.84375 -1.28125 L 9.390625 -1.28125 Z M 9.390625 0 "/></g></g></g><g fill="#ee537f" fill-opacity="1"><g transform="translate(318.44467, 122.800477)"><g><path d="M 2.84375 -9.8125 L 2.84375 0 L 1.46875 0 L 1.46875 -14.171875 L 8.953125 -3.53125 L 8.953125 -13.328125 L 10.328125 -13.328125 L 10.328125 0.828125 Z M 2.84375 -9.8125 "/></g></g></g></svg>
