<svg width="429.00000000000006" height="106.5694716359639" viewBox="0 0 369.89473684210526 91.88691530579734" class="looka-1j8o68f"><defs id="SvgjsDefs1494"></defs><g id="SvgjsG1495" featurekey="S6ay6y-0" transform="matrix(0.9909726340066092,0,0,0.9909726340066092,-3.6940257650422272,-3.660038859610039)" fill="#ffffff"><title xmlns="http://www.w3.org/2000/svg">icons</title><path xmlns="http://www.w3.org/2000/svg" d="M93.67,50c-0.4,9-8.84,14.39-15.12,19.54-6.08,5-10.27,11.3-15.62,17-7.09,7.51-15.66,9.2-23.62,1.85-5.69-5.25-9.59-12.08-15.48-17.16S9.3,61.23,7.17,53.25C4.73,44.13,13,37.56,19.28,32.53S30.14,22,35.27,16C41.18,9,49.1,3.23,58,9.13,65.36,14,69.51,22.59,76.1,28.4,82.85,34.34,93.22,39.95,93.67,50c0.09,1.92,3.09,1.93,3,0-0.43-9.53-8.15-15.31-15-20.84C74.09,23,69.22,14.46,61.78,8.27,55.37,2.93,47.38,2,40.4,6.88,32.57,12.37,28,21.39,20.73,27.51,14.33,32.87,5.7,38.28,4,47.13c-1.74,9.11,5.18,15.93,11.6,21.2,3.6,3,7.34,5.74,10.47,9.22s6,7.57,9.28,11.07C41,94.63,48.71,98.71,56.86,95c9.45-4.35,14.2-15.05,21.84-21.65C86.18,66.85,96.18,61,96.67,50,96.76,48.07,93.76,48.07,93.67,50Z"></path></g><g id="SvgjsG1496" featurekey="j5pGhi-0" transform="matrix(2.809701896631288,0,0,2.809701896631288,110.65584064481513,12.81735909384545)" fill="#ffffff"><path d="M7.6758 4.901999999999999 l6.748 14.482 l-1.543 0 l-2.2754 -4.7754 l-6.25 0 l-2.2559 4.7754 l-1.6211 0 l6.8457 -14.482 l0.35156 0 z M7.5 7.968999999999999 l-2.5 5.2539 l4.9609 0 z M26.836109375 10.7031 l-1.0938 0.68359 q-1.416015625 -1.89453125 -3.8671875 -1.89453125 q-1.962890625 0 -3.256835938 1.259765625 t-1.2939 3.0664 q0 1.171875 0.595703125 2.211914063 t1.6309 1.6064 t2.3242 0.56641 q2.373046875 0 3.8671875 -1.875 l1.0938 0.71289 q-0.771484375 1.15234375 -2.065429688 1.782226563 t-2.9541 0.62988 q-2.529296875 0 -4.204101563 -1.611328125 t-1.6748 -3.916 q0 -1.5625 0.7861328125 -2.895507813 t2.1484 -2.0801 t3.0615 -0.74707 q1.0546875 0 2.045898438 0.322265625 t1.6846 0.84473 t1.1719 1.333 z M39.863453125 10.7031 l-1.0938 0.68359 q-1.416015625 -1.89453125 -3.8671875 -1.89453125 q-1.962890625 0 -3.256835938 1.259765625 t-1.2939 3.0664 q0 1.171875 0.595703125 2.211914063 t1.6309 1.6064 t2.3242 0.56641 q2.373046875 0 3.8671875 -1.875 l1.0938 0.71289 q-0.771484375 1.15234375 -2.065429688 1.782226563 t-2.9541 0.62988 q-2.529296875 0 -4.204101563 -1.611328125 t-1.6748 -3.916 q0 -1.5625 0.7861328125 -2.895507813 t2.1484 -2.0801 t3.0615 -0.74707 q1.0546875 0 2.045898438 0.322265625 t1.6846 0.84473 t1.1719 1.333 z M51.513796875 15.6348 l1.1523 0.61523 q-0.556640625 1.123046875 -1.30859375 1.806640625 t-1.6895 1.04 t-2.1191 0.35645 q-2.6171875 0 -4.091796875 -1.713867188 t-1.4746 -3.8721 q0 -2.041015625 1.25 -3.6328125 q1.58203125 -2.03125 4.248046875 -2.03125 q2.724609375 0 4.365234375 2.080078125 q1.162109375 1.46484375 1.171875 3.65234375 l-9.6191 0 q0.0390625 1.875 1.19140625 3.071289063 t2.8418 1.1963 q0.8203125 0 1.591796875 -0.2880859375 t1.3135 -0.75684 t1.1768 -1.5234 z M51.513796875 12.7539 q-0.2734375 -1.103515625 -0.80078125 -1.762695313 t-1.3965 -1.0645 t-1.8262 -0.40527 q-1.572265625 0 -2.705078125 1.015625 q-0.8203125 0.7421875 -1.240234375 2.216796875 l7.9688 0 z M55.576134375 15.3809 l-0.019531 -1.1426 q-0.029296875 -0.83984375 0.068359375 -1.42578125 q0.21484375 -1.845703125 0.9375 -2.705078125 q0.703125 -0.751953125 1.435546875 -1.162109375 q1.2109375 -0.517578125 2.763671875 -0.48828125 q1.2109375 0 2.241210938 0.6103515625 t1.4697 1.6406 t0.43945 3.2275 l0 5.5078 l-1.3672 0 l0 -5.1074 q0 -1.85546875 -0.15625 -2.48046875 q-0.244140625 -1.064453125 -0.966796875 -1.508789063 t-2.1387 -0.44434 q-1.25 0 -2.2265625 0.72265625 t-0.9082 1.9727 q-0.185546875 0.80078125 -0.185546875 2.919921875 l0 3.9258 l-1.3867 0 l0 -4.0625 z M77.754359375 17.3633 q0.87890625 -1.46484375 1.0546875 -2.880859375 q0 -10.16601563 0 -10.14648438 l-1.3672 0 l0 5.9766 q-0.869140625 -1.064453125 -1.943359375 -1.586914063 t-2.3535 -0.52246 q-2.265625 0 -3.876953125 1.650390625 t-1.6113 4.0039 q0 2.314453125 1.62109375 3.955078125 t3.9063 1.6406 q1.30859375 0 2.456054688 -0.5029296875 t2.1143 -1.5869 z M73.300759375 18.1348 q-1.162109375 0 -2.133789063 -0.5712890625 t-1.5479 -1.5869 t-0.57617 -2.168 q0 -1.1328125 0.5810546875 -2.172851563 t1.5625 -1.6113 t2.0947 -0.57129 q1.1328125 0 2.1484375 0.5712890625 t1.5625 1.5527 t0.54688 2.1924 q0 1.865234375 -1.23046875 3.115234375 t-3.0078 1.25 z M86.68945625 8.203 q2.470703125 0 4.1015625 1.787109375 q1.474609375 1.640625 1.474609375 3.876953125 t-1.5625 3.9111 t-4.0137 1.6748 q-2.4609375 0 -4.018554688 -1.674804688 t-1.5576 -3.9111 q0 -2.2265625 1.474609375 -3.8671875 q1.630859375 -1.796875 4.1015625 -1.796875 z M86.68945625 9.551 q-1.708984375 0 -2.939453125 1.26953125 t-1.2305 3.0664 q0 1.162109375 0.5615234375 2.172851563 t1.5186 1.5527 t2.0898 0.54199 q1.15234375 0 2.104492188 -0.5419921875 t1.5088 -1.5527 t0.55664 -2.1729 q0 -1.796875 -1.23046875 -3.06640625 t-2.9395 -1.2695 z"></path></g></svg>